<?xml version="1.0" encoding="utf-8"?>
<!-- Generator: Adobe Illustrator 24.3.0, SVG Export Plug-In . SVG Version: 6.00 Build 0)  -->
<svg version="1.1" id="Capa_1" xmlns="http://www.w3.org/2000/svg" xmlns:xlink="http://www.w3.org/1999/xlink" x="0px" y="0px"
	 viewBox="0 0 63 73" style="enable-background:new 0 0 63 73;" xml:space="preserve">
<style type="text/css">
	.st0{fill:#E1BEA2;}
</style>
<g>
	<path class="st0" d="M53,2c4.4,0,8,3.6,8,8v53c0,4.4-3.6,8-8,8H10c-4.4,0-8-3.6-8-8V10c0-4.4,3.6-8,8-8H53 M53,0H10
		C4.5,0,0,4.5,0,10v53c0,5.5,4.5,10,10,10h43c5.5,0,10-4.5,10-10V10C63,4.5,58.5,0,53,0L53,0z"/>
</g>
<g id="XMLID_2081_">
	<path class="st0" d="M25,62.4h10.4V36.3h7.3l0.8-8.7h-8c0,0,0-3.3,0-5c0-2.1,0.4-2.9,2.4-2.9c1.6,0,5.6,0,5.6,0v-9.1
		c0,0-5.9,0-7.2,0c-7.7,0-11.2,3.4-11.2,9.9c0,5.7,0,7,0,7h-5.4v8.8H25V62.4z"/>
</g>
</svg>
