<?xml version="1.0" encoding="utf-8"?>
<!-- Generator: Adobe Illustrator 24.3.0, SVG Export Plug-In . SVG Version: 6.00 Build 0)  -->
<svg version="1.1" id="Capa_1" xmlns="http://www.w3.org/2000/svg" xmlns:xlink="http://www.w3.org/1999/xlink" x="0px" y="0px"
	 viewBox="0 0 63 73" style="enable-background:new 0 0 63 73;" xml:space="preserve">
<style type="text/css">
	.st0{fill:#E1BEA2;}
</style>
<g>
	<path class="st0" d="M53,2c4.4,0,8,3.6,8,8v53c0,4.4-3.6,8-8,8H10c-4.4,0-8-3.6-8-8V10c0-4.4,3.6-8,8-8H53 M53,0H10
		C4.5,0,0,4.5,0,10v53c0,5.5,4.5,10,10,10h43c5.5,0,10-4.5,10-10V10C63,4.5,58.5,0,53,0L53,0z"/>
</g>
<g id="XMLID_2024_">
	<path id="XMLID_2076_" class="st0" d="M31.5,18.8c5.8,0,6.5,0,8.7,0.1c2.1,0.1,3.3,0.4,4,0.7c1,0.4,1.7,0.9,2.5,1.6
		c0.8,0.8,1.2,1.5,1.6,2.5c0.3,0.8,0.6,1.9,0.7,4c0.1,2.3,0.1,3,0.1,8.7s0,6.5-0.1,8.7c-0.1,2.1-0.4,3.3-0.7,4
		c-0.4,1-0.9,1.7-1.6,2.5c-0.8,0.8-1.5,1.2-2.5,1.6c-0.8,0.3-1.9,0.6-4,0.7c-2.3,0.1-3,0.1-8.7,0.1s-6.5,0-8.7-0.1
		c-2.1-0.1-3.3-0.4-4-0.7c-1-0.4-1.7-0.9-2.5-1.6c-0.8-0.8-1.2-1.5-1.6-2.5c-0.3-0.8-0.6-1.9-0.7-4c-0.1-2.3-0.1-3-0.1-8.7
		s0-6.5,0.1-8.7c0.1-2.1,0.4-3.3,0.7-4c0.4-1,0.9-1.7,1.6-2.5c0.8-0.8,1.5-1.2,2.5-1.6c0.8-0.3,1.9-0.6,4-0.7
		C25,18.8,25.7,18.8,31.5,18.8 M31.5,14.9c-5.9,0-6.6,0-8.9,0.1c-2.3,0.1-3.9,0.5-5.2,1c-1.4,0.6-2.6,1.3-3.8,2.5
		c-1.2,1.2-1.9,2.4-2.5,3.8c-0.5,1.4-0.9,2.9-1,5.2c-0.1,2.3-0.1,3-0.1,8.9c0,5.9,0,6.6,0.1,8.9c0.1,2.3,0.5,3.9,1,5.2
		c0.6,1.4,1.3,2.6,2.5,3.8c1.2,1.2,2.4,1.9,3.8,2.5c1.4,0.5,2.9,0.9,5.2,1c2.3,0.1,3,0.1,8.9,0.1c5.9,0,6.6,0,8.9-0.1
		c2.3-0.1,3.9-0.5,5.2-1c1.4-0.6,2.6-1.3,3.8-2.5s1.9-2.4,2.5-3.8c0.5-1.4,0.9-2.9,1-5.2c0.1-2.3,0.1-3,0.1-8.9c0-5.9,0-6.6-0.1-8.9
		c-0.1-2.3-0.5-3.9-1-5.2c-0.6-1.4-1.3-2.6-2.5-3.8c-1.2-1.2-2.4-1.9-3.8-2.5c-1.4-0.5-2.9-0.9-5.2-1C38.1,14.9,37.4,14.9,31.5,14.9
		"/>
	<path id="XMLID_2073_" class="st0" d="M31.5,25.4c-6.1,0-11.1,5-11.1,11.1c0,6.1,5,11.1,11.1,11.1c6.1,0,11.1-5,11.1-11.1
		C42.6,30.4,37.6,25.4,31.5,25.4 M31.5,43.7c-4,0-7.2-3.2-7.2-7.2c0-4,3.2-7.2,7.2-7.2s7.2,3.2,7.2,7.2
		C38.7,40.5,35.5,43.7,31.5,43.7"/>
	<path id="XMLID_2025_" class="st0" d="M45.6,25c0,1.4-1.2,2.6-2.6,2.6c-1.4,0-2.6-1.2-2.6-2.6c0-1.4,1.2-2.6,2.6-2.6
		C44.5,22.4,45.6,23.5,45.6,25"/>
</g>
</svg>
