<?xml version="1.0" encoding="utf-8"?>
<!-- Generator: Adobe Illustrator 24.3.0, SVG Export Plug-In . SVG Version: 6.00 Build 0)  -->
<svg version="1.1" id="Capa_1" xmlns="http://www.w3.org/2000/svg" xmlns:xlink="http://www.w3.org/1999/xlink" x="0px" y="0px"
	 viewBox="0 0 251 109" style="enable-background:new 0 0 251 109;" xml:space="preserve">
<style type="text/css">
	.st0{fill:#E1BEA2;}
</style>
<g>
	<path class="st0" d="M34.5,56.3h2.4V23h15.3c4.2,0,7.5,0.4,9.9,1.1c1.2,0.4,2.4,0.9,3.4,1.6c-0.1-0.1-0.1-0.2-0.2-0.2
		c-1.5-1.6-3.4-2.7-5.6-3.4c-2.4-0.8-5.7-1.1-9.9-1.1H34.5V56.3z"/>
	<path class="st0" d="M87.1,20.6c2.7,5.2,4,11.2,4,18c0,12-4.1,21.4-12.1,27.8c-3.4,2.7-7.4,4.6-11.8,5.8c-4.2,1.1-9.7,1.7-16.2,1.7
		H12.3v2h41c6.5,0,12-0.6,16.2-1.7c4.5-1.1,8.4-3.1,11.8-5.8c8-6.4,12.1-15.7,12.1-27.8c0-6.8-1.4-12.8-4-18
		c-2.1-4.1-5-7.5-8.5-10.2C83.4,14.8,85.5,17.5,87.1,20.6"/>
	<path class="st0" d="M227.9,51.5l10.7,13.7l-3.7,1.9c-6,3.1-11.1,5.2-15.3,6.3c-4.2,1.1-9.2,1.7-15,1.7c-11.5,0-21.1-2.5-28.6-7.5
		c-0.9-0.6-1.7-1.2-2.5-1.8c1.5,1.4,3.1,2.7,4.9,3.8c7.5,5,17.1,7.5,28.6,7.5c5.7,0,10.8-0.6,15-1.7c4.1-1.1,9.3-3.2,15.3-6.3
		l3.7-1.9l-12.6-16L227.9,51.5z"/>
	<path class="st0" d="M191.9,26.5c4.1-3.1,9.9-4.7,17.2-4.7c0.1,0,0.3,0,0.7,0c1.9,0,8,0.3,13.8,3.1c0-0.4-0.2-0.8-0.3-0.9
		c-6.4-3.9-13.8-4.2-15.9-4.2c-0.4,0-0.6,0-0.7,0c-7.3,0-13.1,1.6-17.2,4.7c-4.7,3.6-7,9.2-7,14.9c0,5.7,2.2,10,7,13.5
		c0.1,0,0.1,0.1,0.2,0.1c-3.2-3.2-4.8-6.9-4.8-11.6C184.9,35.7,187.1,30.1,191.9,26.5"/>
	<polygon class="st0" points="225.9,28.3 225.8,28.8 229.2,31 241.1,14.1 238.3,12.7 226.9,29 	"/>
	<path class="st0" d="M112.3,4.1c-0.1,0.1-0.2,0.2-0.3,0.4c1.9,2.7,8.7,12.2,14.2,20c0.1-0.2,0.3-0.4,0.5-0.7
		c-5.1-7.1-10.6-14.9-12.3-17.3c0.1-0.1,0.2-0.3,0.3-0.4l1.9-1.6l-1.2-3h-1.6l0.4,1L112.3,4.1z"/>
	<path class="st0" d="M137.6,41.6v31c0,0.2,0.4,0.7,0.7,0.9l1.7,1.2c0,0,0-0.1,0-0.1v-31L167.7,4l-1.4-2.7l-1.3,0l0.3,0.6
		L137.6,41.6z"/>
	<path class="st0" d="M140.2,75.1l-1.1,2.8l-1.7,0.4l-12,2.7l-10.7-2.8l0.6,1.6l12.4,3.3l12-2.7l1.7-0.4l1.2-2.9l-2-1.4
		C140.5,75.5,140.4,75.3,140.2,75.1"/>
	<path class="st0" d="M71.1,13c-4.2-1.7-10.3-2.5-18.3-2.5H19.1c0.1,0.6,0.2,1.2,0.2,1.9v54.3c-0.7,0.7-1.2,1.2-1.9,1.9h0
		c0.1-0.6,0.2-1.2,0.2-2V10.6c0-0.7-0.1-1.3-0.2-1.9H51c8,0,14.1,0.8,18.3,2.5c3.7,1.5,6.9,3.7,9.4,6.5C76.5,15.7,74,14.2,71.1,13
		 M66.4,24.3c2,2.1,3.4,4.9,4.1,8.3c0.4,1.8,0.6,3.8,0.6,6c0,8.7-2.8,14.4-8.7,17.4c-2.8,1.4-7,2.1-12.7,2.1H36.8h-4.1V19.2h17
		c4.3,0,7.8,0.4,10.4,1.2C62.6,21.2,64.7,22.5,66.4,24.3 M65.8,60.9c-3.3,1.7-8.1,2.5-14.3,2.5H29.3l1.7-1.8h18.7
		c6.2,0,11-0.8,14.3-2.5c7-3.6,10.6-10.4,10.6-20.5c0-6.8-1.7-12.2-5.1-16.1c0.4,0.4,0.8,0.7,1.2,1.1c3.7,3.9,5.6,9.6,5.6,16.8
		C76.4,50.4,72.8,57.3,65.8,60.9 M12.6,70.5l-1.8,1.5h2H51c6.4,0,11.7-0.5,15.8-1.6c4.2-1.1,8-2.9,11.1-5.5
		c7.6-6.1,11.4-14.9,11.4-26.4c0-6.5-1.3-12.3-3.8-17.2C82.3,15.2,77.3,10.7,70.6,8c-2.4-1-5.4-1.7-9-2.1C58.5,5.4,55,5.2,51,5.2
		H13.2l-2.2,0l1.4,1.3l0.2,0.2C12.6,6.8,14,8,14,10.4c0,0.1,0,0.1,0,0.2v56.1C14,69.2,12.7,70.5,12.6,70.5"/>
	<path class="st0" d="M225.7,58.4c0.2-0.1,0.5-0.3,0.7-0.4l0,0c-0.3,1.4-0.4,1.7-0.7,3.1c-5.1,2.3-10.9,3.5-17.3,3.5
		c-8.4,0-15.2-1.9-20.2-5.8c-1.4-1-2.6-2.2-3.7-3.3c0.6,0.5,1.2,1.1,1.9,1.6c5,3.8,11.8,5.8,20.2,5.8
		C213.7,62.8,220.2,61.3,225.7,58.4 M172.8,19.4c6.9-7.9,17.7-11.9,31.9-11.9c5.3,0,9.9,0.5,13.6,1.5c3.4,0.9,7.7,2.6,12.7,5.1
		l-1.4,0.2c-4-1.9-6.6-2.8-9.5-3.5c-3.7-1-8.2-1.5-13.6-1.5c-14.2,0-25,4-31.9,11.9c-4.6,5.2-6.9,12.8-6.9,19.9
		c0,5.2,1.3,10.1,3.9,14.4c1,1.7,2.2,3.2,3.5,4.7c-2.1-1.9-3.9-4.1-5.3-6.5c-2.6-4.3-3.9-9.2-3.9-14.4
		C165.9,32.2,168.2,24.6,172.8,19.4 M163.9,49.1c0.7,2.2,1.7,4.3,2.9,6.4c2.5,4.2,6,7.8,10.3,10.6c7.2,4.8,16.5,7.2,27.7,7.2
		c5.6,0,10.5-0.6,14.5-1.6c4-1.1,9-3.1,14.9-6.2l1.9-1l-9.5-12.1l-1.5-1.9l0.4,3.2c0,0,0.1,1-1.2,1.7c-5,2.6-10.9,4-17.5,4
		c-1.2,0-2.4-0.1-3.5-0.1c-6-0.5-10.9-2.1-14.6-4.9c-5.2-3.9-7.7-8.7-7.7-14.9c0-6.2,2.5-12.4,7.6-16.3c4.4-3.4,10.5-5.1,18.2-5.1
		c0.1,0,0.4,0,0.7,0c2.2,0,10.1,0.3,16.9,4.5c0.6,0.3,1.1,1.6,1.1,2.7l0,0.5l-0.1,2.1l0,0.6l0.3-0.4l0.5-0.8l10.2-14.4l-2-1
		c-5.9-3.1-11-5.1-15-6.2c-1.7-0.4-3.5-0.8-5.4-1C211,4.2,208,4,204.7,4c-15.3,0-26.9,4.4-34.5,13.1c-5.2,5.9-7.8,14.2-7.8,22.2
		C162.4,42.7,162.9,46,163.9,49.1"/>
	<path class="st0" d="M145.4,6.6c0.4-0.5,0.7-1.2,0.7-1.8L157,4.6l-2.8,1.5l-6.5,0.1l-21.4,29.3l0-2.4l1.9-2.6
		C132.7,24.2,144.6,7.6,145.4,6.6 M121.6,72.6c-0.9,0.7-1.1,0.8-1.9,1.5l0,0c0.1-0.4,0.2-0.9,0.2-1.4V39.9L93.4,4.8h13.1L104.6,6
		h-8.3l25.2,33.5V72.6z M116.3,41v1.8v29.8c0,1-1.2,1.9-1.7,2.2l-1.8,1.1l1.6,0.4l11,2.9l13.5-3.1l-1.7-1.1c0,0-1.5-1-1.5-2.4V41.1
		l27.7-39.7l0.2-0.3L139,1.3l1.6,1.1l0.8,0.5c0.5,0.3,1.2,1,1.3,1.4c0,0.1,0,0.1,0,0.2c-0.1,0.1-0.4,0.6-0.9,1.2
		c-2.6,3.7-10.2,14.3-14.1,19.6c-0.6,0.9-1.2,1.6-1.5,2.2C123,23.1,110.6,5.8,110,4.7c-0.2-0.3,0.5-1.3,1.2-1.9l1.5-1.3l0.3-0.3
		H86.3l1.8,2.4L116.3,41z"/>
	<polygon class="st0" points="249.5,82.3 249.4,80.6 125.5,100 1.6,80.6 1.5,82.3 125.5,107.9 	"/>
</g>
</svg>
