<?xml version="1.0" encoding="utf-8"?>
<!-- Generator: Adobe Illustrator 24.3.0, SVG Export Plug-In . SVG Version: 6.00 Build 0)  -->
<svg version="1.1" id="Capa_1" xmlns="http://www.w3.org/2000/svg" xmlns:xlink="http://www.w3.org/1999/xlink" x="0px" y="0px"
	 viewBox="0 0 248 180" style="enable-background:new 0 0 248 180;" xml:space="preserve">
<style type="text/css">
	.st0{opacity:0.5;}
	.st1{fill:#C7A77F;}
</style>
<g class="st0">
	<path class="st1" d="M100.5,1.6v13c-19.1,6.7-34.2,17.2-45,31.6C44.6,60.6,39.2,75.5,39.2,91.1c0,3.4,0.6,5.8,1.7,7.4
		c0.7,1.1,1.6,1.6,2.5,1.6c0.9,0,2.3-0.6,4.1-1.9c5.9-4.1,13.3-6.1,22.4-6.1c10.5,0,19.8,4.1,27.9,12.3c8.1,8.2,12.2,17.9,12.2,29.2
		c0,11.8-4.7,22.2-13.9,31.2c-9.3,9-20.6,13.5-33.8,13.5c-15.5,0-28.8-6.1-40-18.3c-11.2-12.2-16.8-28.5-16.8-48.9
		c0-23.8,7.6-45.1,22.9-64C43.5,28.3,67.6,13.1,100.5,1.6z M233.4,1.6v13c-19.1,6.7-34.2,17.2-45,31.6
		c-10.9,14.4-16.3,29.3-16.3,44.8c0,3.4,0.6,5.8,1.7,7.4c0.7,1.1,1.6,1.6,2.5,1.6c0.9,0,2.3-0.6,4.1-1.9c5.9-4.1,13.3-6.1,22.4-6.1
		c10.5,0,19.8,4.1,27.9,12.3c8.1,8.2,12.2,17.9,12.2,29.2c0,11.8-4.7,22.2-13.9,31.2c-9.3,9-20.6,13.5-33.8,13.5
		c-15.5,0-28.8-6.1-40-18.3c-11.2-12.2-16.8-28.5-16.8-48.9c0-23.8,7.6-45.1,22.9-64C176.3,28.3,200.4,13.1,233.4,1.6z"/>
</g>
</svg>
