<?xml version="1.0" encoding="utf-8"?>
<!-- Generator: Adobe Illustrator 24.3.0, SVG Export Plug-In . SVG Version: 6.00 Build 0)  -->
<svg version="1.1" id="Capa_1" xmlns="http://www.w3.org/2000/svg" xmlns:xlink="http://www.w3.org/1999/xlink" x="0px" y="0px"
	 viewBox="0 0 63 73" style="enable-background:new 0 0 63 73;" xml:space="preserve">
<style type="text/css">
	.st0{fill:#E1BEA2;}
</style>
<g>
	<path class="st0" d="M53,2c4.4,0,8,3.6,8,8v53c0,4.4-3.6,8-8,8H10c-4.4,0-8-3.6-8-8V10c0-4.4,3.6-8,8-8H53 M53,0H10
		C4.5,0,0,4.5,0,10v53c0,5.5,4.5,10,10,10h43c5.5,0,10-4.5,10-10V10C63,4.5,58.5,0,53,0L53,0z"/>
</g>
<g id="XMLID_2112_">
	<path class="st0" d="M8.1,51.2c4.2,2.7,9.3,4.3,14.7,4.3c17.8,0,27.9-15,27.3-28.5c1.9-1.4,3.5-3,4.8-5c-1.7,0.8-3.6,1.3-5.5,1.5
		c2-1.2,3.5-3.1,4.2-5.3c-1.9,1.1-3.9,1.9-6.1,2.3c-1.8-1.9-4.2-3-7-3c-6.2,0-10.7,5.8-9.3,11.8c-8-0.4-15-4.2-19.8-10
		c-2.5,4.3-1.3,10,3,12.8c-1.6,0-3.1-0.5-4.3-1.2c-0.1,4.4,3.1,8.6,7.7,9.5c-1.4,0.4-2.8,0.5-4.3,0.2c1.2,3.8,4.8,6.6,9,6.7
		C18.3,50.4,13.2,51.8,8.1,51.2z"/>
</g>
</svg>
