<?xml version="1.0" encoding="utf-8"?>
<!-- Generator: Adobe Illustrator 24.3.0, SVG Export Plug-In . SVG Version: 6.00 Build 0)  -->
<svg version="1.1" id="Capa_1" xmlns="http://www.w3.org/2000/svg" xmlns:xlink="http://www.w3.org/1999/xlink" x="0px" y="0px"
	 viewBox="0 0 63 73" style="enable-background:new 0 0 63 73;" xml:space="preserve">
<style type="text/css">
	.st0{fill:#E1BEA2;}
</style>
<g>
	<path class="st0" d="M53,2c4.4,0,8,3.6,8,8v53c0,4.4-3.6,8-8,8H10c-4.4,0-8-3.6-8-8V10c0-4.4,3.6-8,8-8H53 M53,0H10
		C4.5,0,0,4.5,0,10v53c0,5.5,4.5,10,10,10h43c5.5,0,10-4.5,10-10V10C63,4.5,58.5,0,53,0L53,0z"/>
</g>
<path class="st0" d="M52.7,25.8c-0.5-1.9-2-3.4-3.9-3.9c-3.5-0.9-17.3-0.9-17.3-0.9s-13.8,0-17.3,0.9c-1.9,0.5-3.4,2-3.9,3.9
	c-0.9,3.5-0.9,10.7-0.9,10.7s0,7.2,0.9,10.7c0.5,1.9,2,3.4,3.9,3.9c3.5,0.9,17.3,0.9,17.3,0.9s13.8,0,17.3-0.9
	c1.9-0.5,3.4-2,3.9-3.9c0.9-3.5,0.9-10.7,0.9-10.7S53.6,29.3,52.7,25.8z M27,43.1V29.9l11.6,6.6L27,43.1z"/>
</svg>
